<svg width="50" height="50" viewBox="0 0 50 50" fill="none" xmlns="http://www.w3.org/2000/svg">
<path fill-rule="evenodd" clip-rule="evenodd" d="M25 28.125C27.2102 28.125 29.3298 27.247 30.8926 25.6842C32.4554 24.1214 33.3334 22.0018 33.3334 19.7916C33.3334 17.5815 32.4554 15.4619 30.8926 13.8991C29.3298 12.3363 27.2102 11.4583 25 11.4583C22.7899 11.4583 20.6703 12.3363 19.1075 13.8991C17.5447 15.4619 16.6667 17.5815 16.6667 19.7916C16.6667 22.0018 17.5447 24.1214 19.1075 25.6842C20.6703 27.247 22.7899 28.125 25 28.125ZM25 26.0416C25.8208 26.0416 26.6335 25.88 27.3918 25.5659C28.1501 25.2518 28.8391 24.7914 29.4194 24.2111C29.9998 23.6307 30.4602 22.9417 30.7743 22.1834C31.0884 21.4251 31.25 20.6124 31.25 19.7916C31.25 18.9709 31.0884 18.1582 30.7743 17.3999C30.4602 16.6416 29.9998 15.9526 29.4194 15.3722C28.8391 14.7919 28.1501 14.3315 27.3918 14.0174C26.6335 13.7033 25.8208 13.5416 25 13.5416C23.3424 13.5416 21.7527 14.2001 20.5806 15.3722C19.4085 16.5443 18.75 18.134 18.75 19.7916C18.75 21.4492 19.4085 23.039 20.5806 24.2111C21.7527 25.3832 23.3424 26.0416 25 26.0416Z" fill="#909090"/>
<path fill-rule="evenodd" clip-rule="evenodd" d="M45.8334 25C45.8334 36.5062 36.5063 45.8333 25 45.8333C13.4938 45.8333 4.16669 36.5062 4.16669 25C4.16669 13.4937 13.4938 4.16666 25 4.16666C36.5063 4.16666 45.8334 13.4937 45.8334 25ZM35.0313 40.8437C32.0323 42.7475 28.5522 43.7557 25 43.75C21.3627 43.7558 17.8029 42.6986 14.7584 40.7083C14.5084 40.3958 14.2552 40.0729 13.9979 39.7396C13.7006 39.3489 13.5402 38.8712 13.5417 38.3802C13.5417 37.2583 14.3479 36.3177 15.4261 36.1604C22.5563 35.1187 27.4656 35.2083 34.6052 36.1969C35.1223 36.2718 35.5947 36.5313 35.9354 36.9275C36.276 37.3236 36.4617 37.8296 36.4584 38.3521C36.4584 38.8521 36.2865 39.3375 35.9761 39.7167C35.6563 40.1062 35.3406 40.4823 35.0313 40.8437ZM38.5261 37.9854C38.3594 36.0354 36.8792 34.4083 34.8906 34.1333C27.5823 33.1219 22.474 33.025 15.125 34.099C13.125 34.3906 11.6511 36.0323 11.4761 37.9875C8.11703 34.499 6.2434 29.8428 6.25002 25C6.25002 14.6448 14.6448 6.24999 25 6.24999C35.3552 6.24999 43.75 14.6448 43.75 25C43.7567 29.8418 41.8838 34.4971 38.5261 37.9854Z" fill="#909090"/>
</svg>
