<svg width="47" height="48" viewBox="0 0 47 48" fill="none" xmlns="http://www.w3.org/2000/svg">
<path fill-rule="evenodd" clip-rule="evenodd" d="M23.5 7.2C24.1233 7.2 24.721 7.45285 25.1618 7.90294C25.6025 8.35303 25.85 8.96348 25.85 9.6V21.6H37.6C38.2233 21.6 38.821 21.8529 39.2618 22.3029C39.7025 22.753 39.9501 23.3635 39.9501 24C39.9501 24.6365 39.7025 25.247 39.2618 25.6971C38.821 26.1471 38.2233 26.4 37.6 26.4H25.85V38.4C25.85 39.0365 25.6025 39.647 25.1618 40.0971C24.721 40.5471 24.1233 40.8 23.5 40.8C22.8768 40.8 22.2791 40.5471 21.8383 40.0971C21.3976 39.647 21.15 39.0365 21.15 38.4V26.4H9.40005C8.77679 26.4 8.17906 26.1471 7.73835 25.6971C7.29764 25.247 7.05005 24.6365 7.05005 24C7.05005 23.3635 7.29764 22.753 7.73835 22.3029C8.17906 21.8529 8.77679 21.6 9.40005 21.6H21.15V9.6C21.15 8.96348 21.3976 8.35303 21.8383 7.90294C22.2791 7.45285 22.8768 7.2 23.5 7.2Z" fill="white"/>
</svg>
